<?xml version="1.0" encoding="UTF-8" standalone="no"?>
<!-- Generator: Adobe Illustrator 19.0.0, SVG Export Plug-In . SVG Version: 6.00 Build 0)  -->

<svg
   xmlns:dc="http://purl.org/dc/elements/1.1/"
   xmlns:cc="http://creativecommons.org/ns#"
   xmlns:rdf="http://www.w3.org/1999/02/22-rdf-syntax-ns#"
   xmlns:svg="http://www.w3.org/2000/svg"
   xmlns="http://www.w3.org/2000/svg"
   xmlns:sodipodi="http://sodipodi.sourceforge.net/DTD/sodipodi-0.dtd"
   xmlns:inkscape="http://www.inkscape.org/namespaces/inkscape"
   version="1.1"
   id="Layer_1"
   x="0px"
   y="0px"
   viewBox="0 0 255.86247 113.95025"
   xml:space="preserve"
   width="2.6652341in"
   height="1.1869818in"
   sodipodi:docname="gooddeedslogo.svg"
   inkscape:version="0.92.4 (5da689c313, 2019-01-14)"><metadata
   id="metadata36"><rdf:RDF><cc:Work
       rdf:about=""><dc:format>image/svg+xml</dc:format><dc:type
         rdf:resource="http://purl.org/dc/dcmitype/StillImage" /><dc:title></dc:title></cc:Work></rdf:RDF></metadata><defs
   id="defs34" /><sodipodi:namedview
   pagecolor="#ffffff"
   bordercolor="#666666"
   borderopacity="1"
   objecttolerance="10"
   gridtolerance="10"
   guidetolerance="10"
   inkscape:pageopacity="0"
   inkscape:pageshadow="2"
   inkscape:window-width="3840"
   inkscape:window-height="2066"
   id="namedview32"
   showgrid="false"
   inkscape:snap-bbox="true"
   inkscape:zoom="3.5722656"
   inkscape:cx="340.20025"
   inkscape:cy="-130.85248"
   inkscape:window-x="3829"
   inkscape:window-y="-11"
   inkscape:window-maximized="1"
   inkscape:current-layer="Layer_1"
   showguides="true"
   inkscape:guide-bbox="true"
   units="in"><sodipodi:guide
     position="-115.59931,-400.42517"
     orientation="0,1"
     id="guide58"
     inkscape:locked="false" /><sodipodi:guide
     position="558.20037,-509.68998"
     orientation="1,0"
     id="guide60"
     inkscape:locked="false" /></sodipodi:namedview>
<linearGradient
   id="SVGID_1_"
   gradientUnits="userSpaceOnUse"
   x1="256.00021"
   y1="0.00013742151"
   x2="256.00021"
   y2="512.00012"
   gradientTransform="translate(0,-4.2463868e-4)">
	<stop
   offset="0"
   style="stop-color:#2AF598"
   id="stop24" />
	<stop
   offset="1"
   style="stop-color:#009EFD"
   id="stop26" />
</linearGradient>
















<g
   id="g4605"
   transform="matrix(0.22255909,0,0,0.22255909,-6.6238773e-5,9.4507198e-5)"><path
     inkscape:connector-curvature="0"
     id="path29"
     d="m 192.621,179.44459 c 31.165,28.911 65.309,49.194 71.836,52.966 2.666,1.541 8.599,4.941 8.599,4.941 l 9.949,5.702 9.947,-5.706 c 0,0 5.923,-3.398 8.586,-4.937 6.529,-3.772 40.675,-24.058 71.839,-52.966 35.582,-33.006 53.623,-64.642 53.623,-94.028015 0,-49.494 -34.486,-85.41699963868 -82,-85.41699963868 -31.603,0 -50.988,12.51399963868 -62,23.70499963868 -11.012,-11.191 -30.397,-23.70499963868 -62,-23.70499963868 -47.514,0 -82,35.92299963868 -82,85.41699963868 0,29.386015 18.041,61.022015 53.621,94.028015 z M 220.534,40.010575 c 30.496,0.455 62.466,59.989 62.466,59.989 0,0 32.571,-60 62,-60 25.122,0 42,18.251 42,45.417 C 387,122.42059 323.842,172.98659 282.998,196.92059 242.155,172.98659 179,122.42259 179,85.416575 c 0,-26.995 16.672,-45.18 41.534,-45.406 z M 198.913,340.08659 c 0,5.296 2.621,10.245 7.011,13.236 5.316,3.623 9.816,5.479 11.538,5.846 7.765,1.135 96.748,10.647 155.095,16.81 l -4.201,39.778 c -45.453,-4.8 -151.836,-16.088 -158.001,-17.223 -10.865,-1.999 -21.553,-8.475 -26.956,-12.157 -5.149,-3.509 -9.581,-7.804 -13.223,-12.646 l -0.184,0.188 -95.982,-94.194 c -3.814,-3.742 -8.871,-5.758 -14.197,-5.726 -5.341,0.05 -10.344,2.178 -14.085,5.991 -3.743,3.813 -5.776,8.855 -5.726,14.197 0.05,5.342 2.178,10.345 5.991,14.086 l 148.436,145.67 c 11.862,11.645 27.55,18.057 44.173,18.057 H 512 v 40 H 238.602 c -27.167,0 -52.805,-10.479 -72.192,-29.507 l -148.435,-145.67 c -11.439,-11.225 -17.821,-26.233 -17.972,-42.259 -0.15,-16.026 5.949,-31.151 17.174,-42.589 11.225,-11.438 26.232,-17.822 42.259,-17.973 15.992,-0.171 31.151,5.949 42.59,17.175 l 63.577,62.393 c 9.469,-17.538 28.02,-29.482 49.31,-29.482 l 138.354,-0.053 c 0.996,0.005 1.979,0.005 2.969,0.017 h 0.004 c 48.742,0.588 95.458,15.894 135.1,44.261 l 20.66,14.782 v 49.187 l -43.937,-31.44 c -32.952,-23.58 -71.784,-36.303 -112.3,-36.793 v 0 c -0.825,-0.009 -1.638,-0.017 -2.477,-0.014 l -138.365,0.053 c -8.83,-10e-4 -16.008,7.177 -16.008,15.999 z"
     style="fill:url(#SVGID_1_)" /><g
     id="text40"
     style="font-style:normal;font-weight:normal;font-size:40px;line-height:1.25;font-family:sans-serif;letter-spacing:0px;word-spacing:0px;opacity:1;fill:#000000;fill-opacity:1;stroke:none"
     aria-label="Good"><path
       id="path4573"
       style="font-style:normal;font-variant:normal;font-weight:normal;font-stretch:normal;font-size:192px;font-family:Poppins;-inkscape-font-specification:Poppins;fill:#24c4f4;fill-opacity:1"
       d="m 626.33074,203.58472 c -40.32,0 -68.544,28.416 -68.544,68.736 0,40.32 28.416,68.544 68.736,68.544 35.52,0 57.984,-23.232 64.896,-46.464 v -30.528 h -71.424 v 24.192 h 41.664 c -4.992,15.168 -16.32,23.808 -32.64,23.808 -23.616,0 -37.824,-14.592 -37.824,-39.552 0,-23.424 14.016,-38.4 35.136,-38.4 12.288,0 21.504,4.8 26.496,13.824 h 36.288 c -7.104,-27.648 -30.528,-44.16 -62.784,-44.16 z"
       inkscape:connector-curvature="0" /><path
       id="path4575"
       style="font-style:normal;font-variant:normal;font-weight:normal;font-stretch:normal;font-size:192px;font-family:Poppins;-inkscape-font-specification:Poppins;fill:#24c4f4;fill-opacity:1"
       d="m 814.43674,286.33672 c 0,-33.984 -24.192,-55.104 -55.68,-55.104 -31.296,0 -55.68,21.12 -55.68,55.104 0,33.984 23.808,55.104 55.296,55.104 31.488,0 56.064,-21.12 56.064,-55.104 z m -77.952,0 c 0,-18.24 10.368,-26.688 22.272,-26.688 11.52,0 22.272,8.448 22.272,26.688 0,18.048 -10.944,26.688 -22.656,26.688 -11.904,0 -21.888,-8.64 -21.888,-26.688 z"
       inkscape:connector-curvature="0" /><path
       id="path4577"
       style="font-style:normal;font-variant:normal;font-weight:normal;font-stretch:normal;font-size:192px;font-family:Poppins;-inkscape-font-specification:Poppins;fill:#24c4f4;fill-opacity:1"
       d="m 936.68674,286.33672 c 0,-33.984 -24.192,-55.104 -55.68,-55.104 -31.296,0 -55.68,21.12 -55.68,55.104 0,33.984 23.808,55.104 55.296,55.104 31.488,0 56.064,-21.12 56.064,-55.104 z m -77.952,0 c 0,-18.24 10.368,-26.688 22.272,-26.688 11.52,0 22.272,8.448 22.272,26.688 0,18.048 -10.944,26.688 -22.656,26.688 -11.904,0 -21.888,-8.64 -21.888,-26.688 z"
       inkscape:connector-curvature="0" /><path
       id="path4579"
       style="font-style:normal;font-variant:normal;font-weight:normal;font-stretch:normal;font-size:192px;font-family:Poppins;-inkscape-font-specification:Poppins;fill:#24c4f4;fill-opacity:1"
       d="m 947.57674,286.14472 c 0,33.792 20.928,55.296 47.232,55.296 15.74396,0 27.07196,-7.104 33.02396,-16.896 v 15.36 h 32.832 v -142.08 h -32.832 v 49.728 c -6.528,-9.792 -18.816,-16.32 -33.02396,-16.32 -26.304,0 -47.232,21.12 -47.232,54.912 z m 80.25596,0.192 c 0,17.088 -10.944,26.496 -23.424,26.496 -12.28796,0 -23.42396,-9.6 -23.42396,-26.688 0,-17.088 11.136,-26.304 23.42396,-26.304 12.48,0 23.424,9.408 23.424,26.496 z"
       inkscape:connector-curvature="0" /></g><g
     id="text56"
     style="font-style:normal;font-weight:normal;font-size:40px;line-height:1.25;font-family:sans-serif;letter-spacing:0px;word-spacing:0px;fill:#000000;fill-opacity:1;stroke:none"
     aria-label="Deeds"><path
       id="path4582"
       style="font-style:normal;font-variant:normal;font-weight:normal;font-stretch:normal;font-size:192px;font-family:Poppins;-inkscape-font-specification:Poppins"
       d="m 606.90867,374.97625 h -50.496 v 134.784 h 50.496 c 43.008,0 70.656,-27.456 70.656,-67.392 0,-40.128 -27.648,-67.392 -70.656,-67.392 z m -17.664,106.368 v -78.336 h 15.552 c 24.768,0 39.36,14.592 39.36,39.36 0,24.768 -14.592,38.976 -39.36,38.976 z"
       inkscape:connector-curvature="0" /><path
       id="path4584"
       style="font-style:normal;font-variant:normal;font-weight:normal;font-stretch:normal;font-size:192px;font-family:Poppins;-inkscape-font-specification:Poppins"
       d="m 743.14467,427.39225 c 10.944,0 20.16,6.72 20.16,18.432 h -41.088 c 1.92,-11.904 10.176,-18.432 20.928,-18.432 z m 51.264,46.848 h -34.944 c -2.688,5.76 -7.872,10.368 -17.088,10.368 -10.56,0 -19.2,-6.528 -20.352,-20.544 h 74.304 c 0.384,-3.264 0.576,-6.528 0.576,-9.6 0,-32.64 -22.08,-53.376 -53.376,-53.376 -31.872,0 -54.144,21.12 -54.144,55.104 0,33.984 22.656,55.104 54.144,55.104 26.688,0 45.696,-16.128 50.88,-37.056 z"
       inkscape:connector-curvature="0" /><path
       id="path4586"
       style="font-style:normal;font-variant:normal;font-weight:normal;font-stretch:normal;font-size:192px;font-family:Poppins;-inkscape-font-specification:Poppins"
       d="m 861.26967,427.39225 c 10.944,0 20.16,6.72 20.16,18.432 h -41.088 c 1.92,-11.904 10.176,-18.432 20.928,-18.432 z m 51.264,46.848 h -34.944 c -2.688,5.76 -7.872,10.368 -17.088,10.368 -10.56,0 -19.2,-6.528 -20.352,-20.544 h 74.304 c 0.384,-3.264 0.576,-6.528 0.576,-9.6 0,-32.64 -22.08,-53.376 -53.376,-53.376 -31.872,0 -54.144,21.12 -54.144,55.104 0,33.984 22.656,55.104 54.144,55.104 26.688,0 45.696,-16.128 50.88,-37.056 z"
       inkscape:connector-curvature="0" /><path
       id="path4588"
       style="font-style:normal;font-variant:normal;font-weight:normal;font-stretch:normal;font-size:192px;font-family:Poppins;-inkscape-font-specification:Poppins"
       d="m 925.63467,456.00025 c 0,33.792 20.928,55.296 47.232,55.296 15.744,0 27.072,-7.104 33.02403,-16.896 v 15.36 h 32.832 v -142.08 h -32.832 v 49.728 c -6.52803,-9.792 -18.81603,-16.32 -33.02403,-16.32 -26.304,0 -47.232,21.12 -47.232,54.912 z m 80.25603,0.192 c 0,17.088 -10.94403,26.496 -23.42403,26.496 -12.288,0 -23.424,-9.6 -23.424,-26.688 0,-17.088 11.136,-26.304 23.424,-26.304 12.48,0 23.42403,9.408 23.42403,26.496 z"
       inkscape:connector-curvature="0" /><path
       id="path4590"
       style="font-style:normal;font-variant:normal;font-weight:normal;font-stretch:normal;font-size:192px;font-family:Poppins;-inkscape-font-specification:Poppins"
       d="m 1149.6387,478.65625 c -0.576,-39.936 -58.56,-27.84 -58.56,-44.928 0,-5.184 4.224,-8.256 11.904,-8.256 9.216,0 14.784,4.8 15.744,12.096 h 30.336 c -2.112,-21.12 -17.472,-36.48 -45.12,-36.48 -28.032,0 -43.584,14.976 -43.584,33.216 0,39.36 58.368,26.88 58.368,44.16 0,4.8 -4.416,8.64 -12.864,8.64 -9.024,0 -15.744,-4.992 -16.512,-12.48 h -32.448 c 1.536,20.736 20.736,36.672 49.344,36.672 26.88,0 43.392,-14.016 43.392,-32.64 z"
       inkscape:connector-curvature="0" /></g></g></svg>